<svg xmlns="http://www.w3.org/2000/svg" viewBox="0 0 512 512">
  <defs>
    <linearGradient id="bg" x1="0" y1="0" x2="1" y2="1">
      <stop offset="0%" stop-color="#1d4ed8" />
      <stop offset="100%" stop-color="#0f766e" />
    </linearGradient>
  </defs>
  <rect width="512" height="512" rx="96" fill="url(#bg)"/>
  <g fill="#ffffff">
    <rect x="92" y="290" width="60" height="130" rx="10"/>
    <rect x="190" y="238" width="60" height="182" rx="10"/>
    <rect x="288" y="188" width="60" height="232" rx="10"/>
    <path d="M108 180c41-42 79-61 115-58 25 2 46 15 66 30 12 9 23 18 36 21 28 6 54-13 82-48l30 24c-37 47-78 70-120 61-24-5-42-19-57-31-17-13-31-23-47-24-22-2-49 14-79 45z"/>
  </g>
</svg>
